<?xml version="1.0" encoding="utf-8"?>
<!-- Generator: Adobe Illustrator 23.1.0, SVG Export Plug-In . SVG Version: 6.00 Build 0)  -->
<svg version="1.1" id="Layer_1" xmlns="http://www.w3.org/2000/svg" xmlns:xlink="http://www.w3.org/1999/xlink" x="0px" y="0px"
	 width="71px" height="86px" viewBox="0 0 71 86" enable-background="new 0 0 71 86" xml:space="preserve">
<g>
	<polygon fill="#FF7A00" points="42.5,85.9 37.4,74.2 41.1,72.6 43.7,78.6 49.2,72.6 57.3,72.9 53.2,63.3 56.9,61.7 63.5,77.1 
		50.9,76.7 	"/>
</g>
<g>
	<polygon fill="#FF7A00" points="28.9,85.9 20.3,76.8 7.8,77.5 12.3,66.3 16,67.8 13.9,73.2 22,72.8 27.6,78.6 32.2,67.1 36,68.7 	
		"/>
</g>
<g>
	<path fill="#FF7A00" d="M35.7,70.5c-1.7,0-2.9-1.3-3.9-2.3c-0.3-0.3-0.9-0.9-1.1-1c-0.3,0-1,0.4-1.5,0.7c-1.2,0.7-2.8,1.5-4.4,0.9
		c-1.6-0.5-2.4-2.1-3-3.4c-0.2-0.4-0.5-1.1-0.7-1.3c-0.3,0-1.1,0.1-1.5,0.2c-1.4,0.3-3.1,0.6-4.5-0.4c-1.4-1-1.7-2.8-1.8-4.2
		c-0.1-0.5-0.2-1.2-0.3-1.5c-0.3-0.1-1-0.2-1.5-0.3c-1.4-0.2-3.2-0.4-4.2-1.8c-1-1.4-0.7-3.2-0.5-4.6c0.1-0.5,0.2-1.2,0.2-1.5
		c-0.2-0.2-0.9-0.5-1.3-0.7c-1.3-0.6-2.9-1.4-3.4-3.1c-0.5-1.6,0.3-3.1,1-4.4c0.2-0.4,0.5-1,0.7-1.4c-0.2-0.3-0.7-0.8-1.1-1.1
		c-1.1-1-2.5-2.3-2.5-4c0-1.7,1.3-3,2.3-3.9c0.3-0.3,0.9-0.8,1-1.1c-0.1-0.3-0.4-1-0.7-1.4c-0.7-1.2-1.5-2.8-1-4.4
		c0.5-1.7,2.1-2.4,3.4-3c0.4-0.2,1.1-0.5,1.3-0.7c0-0.3-0.1-1.1-0.2-1.6c-0.3-1.4-0.6-3.1,0.4-4.5c1-1.4,2.8-1.7,4.2-1.8
		c0.5-0.1,1.3-0.2,1.6-0.3c0.1-0.2,0.2-1,0.3-1.5c0.2-1.4,0.4-3.2,1.8-4.2c1.4-1,3.1-0.7,4.5-0.4c0.5,0.1,1.2,0.2,1.5,0.2
		c0.2-0.2,0.5-0.9,0.7-1.3c0.6-1.3,1.4-2.9,3.1-3.4c1.6-0.5,3.1,0.3,4.4,0.9c0.5,0.2,1.2,0.7,1.5,0.7l0.1,0c0.2-0.1,0.8-0.7,1.1-1
		c1-1,2.2-2.2,3.9-2.2c1.7,0,2.9,1.3,3.9,2.3c0.3,0.3,0.9,0.9,1.1,1c0.3,0,1-0.4,1.5-0.7c1.2-0.7,2.8-1.5,4.4-0.9
		c1.6,0.5,2.4,2.1,3,3.4c0.2,0.4,0.5,1.1,0.7,1.3c0.3,0,1.1-0.1,1.5-0.2c1.4-0.3,3.1-0.6,4.5,0.4c1.4,1,1.7,2.8,1.8,4.2
		c0.1,0.5,0.2,1.2,0.3,1.5c0.3,0.1,1,0.2,1.5,0.3c1.4,0.2,3.2,0.4,4.2,1.8c1,1.4,0.7,3.2,0.5,4.6c-0.1,0.5-0.2,1.2-0.2,1.5
		c0.2,0.2,0.9,0.5,1.3,0.7c1.3,0.6,2.9,1.4,3.4,3.1c0.5,1.6-0.3,3.1-1,4.4c-0.2,0.4-0.6,1.1-0.7,1.4c0.2,0.2,0.7,0.7,1,1
		c1.1,1,2.4,2.2,2.4,4c0,1.7-1.3,3-2.3,3.9c-0.3,0.3-0.9,0.8-1,1.1c0.1,0.3,0.4,1,0.7,1.4c0.7,1.2,1.5,2.8,1,4.4
		c-0.5,1.7-2.1,2.4-3.4,3c-0.4,0.2-1.1,0.5-1.3,0.7c0,0.3,0.1,1.1,0.2,1.6c0.3,1.4,0.6,3.1-0.4,4.5c-1,1.4-2.8,1.7-4.2,1.8
		c-0.5,0.1-1.3,0.2-1.6,0.3c-0.1,0.2-0.2,1-0.3,1.5c-0.2,1.4-0.4,3.2-1.8,4.2c-1.4,1-3.1,0.7-4.5,0.4c-0.5-0.1-1.2-0.2-1.5-0.2
		c-0.2,0.2-0.5,0.9-0.7,1.3c-0.6,1.3-1.4,2.9-3.1,3.4c-1.6,0.5-3.1-0.3-4.4-0.9c-0.4-0.2-1.1-0.6-1.4-0.7c-0.3,0.2-0.8,0.7-1.1,1
		C38.7,69.2,37.4,70.5,35.7,70.5z M35.9,66.5L35.9,66.5L35.9,66.5z M30.7,63.2c0.2,0,0.4,0,0.6,0c1.4,0.2,2.5,1.2,3.4,2.2
		c0.3,0.3,0.8,0.8,1.1,1c0.3-0.2,0.8-0.7,1.1-1c0.9-0.9,1.9-2,3.3-2.2c1.5-0.2,2.8,0.5,4,1.1c0.4,0.2,0.9,0.5,1.3,0.6
		c0.2-0.3,0.5-0.9,0.7-1.3c0.6-1.2,1.2-2.5,2.5-3.2c1.3-0.6,2.8-0.4,4-0.2c0.4,0.1,1.1,0.2,1.5,0.2c0,0,0,0,0,0
		c0.1-0.3,0.2-1,0.3-1.4c0.2-1.3,0.4-2.8,1.4-3.8c1.1-1,2.5-1.2,3.8-1.4c0.4-0.1,1.1-0.1,1.4-0.3c0-0.4-0.1-1-0.2-1.4
		c-0.2-1.3-0.5-2.8,0.2-4.1c0.6-1.3,2-1.9,3.2-2.5c0.4-0.2,1-0.5,1.3-0.7c-0.1-0.3-0.4-0.9-0.6-1.3c-0.6-1.2-1.3-2.5-1.1-3.9
		c0.2-1.4,1.3-2.5,2.2-3.4c0.3-0.3,0.8-0.7,1-1c-0.2-0.3-0.7-0.8-1.1-1.1c-0.9-0.9-2-1.8-2.2-3.2l0-0.1c-0.2-1.5,0.5-2.8,1.1-4
		c0.2-0.4,0.5-0.9,0.6-1.3c-0.3-0.2-0.9-0.5-1.3-0.7c-1.2-0.6-2.5-1.2-3.2-2.5c-0.6-1.3-0.4-2.8-0.2-4c0.1-0.4,0.2-1.1,0.2-1.5
		c-0.4-0.1-1-0.2-1.5-0.3c-1.3-0.2-2.8-0.4-3.8-1.4c-1-1-1.2-2.5-1.4-3.8c-0.1-0.4-0.1-1.1-0.3-1.4c-0.4,0-1,0.1-1.4,0.2
		c-1.3,0.2-2.8,0.5-4.1-0.2c-1.3-0.7-1.9-2-2.5-3.2c-0.2-0.4-0.5-1-0.7-1.3C45,5.9,44.4,6.2,44,6.4c-1.2,0.6-2.5,1.3-3.9,1.1
		c-1.4-0.2-2.5-1.2-3.4-2.2c-0.3-0.3-0.8-0.8-1.1-1c-0.3,0.2-0.8,0.7-1.1,1c-0.9,0.9-2,2-3.6,2.2c-1.4,0.2-2.7-0.5-3.9-1.1
		c-0.4-0.2-0.9-0.5-1.3-0.6C25.6,6,25.3,6.6,25.2,7c-0.6,1.2-1.2,2.5-2.5,3.2c-1.3,0.6-2.8,0.4-4,0.2c-0.4-0.1-1.1-0.2-1.5-0.2
		c-0.1,0.3-0.2,1-0.3,1.4c-0.2,1.3-0.4,2.8-1.4,3.8c-1.1,1-2.5,1.2-3.8,1.4c-0.4,0.1-1.1,0.1-1.4,0.3c0,0.4,0.1,1,0.2,1.4
		c0.2,1.3,0.5,2.8-0.2,4.1c-0.6,1.3-2,1.9-3.2,2.5c-0.4,0.2-1,0.5-1.3,0.7c0.1,0.3,0.4,0.9,0.6,1.3c0.6,1.2,1.3,2.5,1.1,3.9
		c-0.2,1.4-1.3,2.5-2.2,3.4c-0.3,0.3-0.8,0.7-1,1c0.2,0.3,0.8,0.8,1.1,1.1c0.9,0.8,1.9,1.8,2.3,3.1l0.1,0.2c0.2,1.5-0.5,2.8-1.1,4
		C6.4,44,6.1,44.6,6,44.9c0.3,0.2,0.9,0.5,1.3,0.7c1.2,0.6,2.5,1.2,3.2,2.5c0.6,1.3,0.4,2.8,0.2,4c-0.1,0.4-0.2,1.1-0.2,1.5
		c0.4,0.1,1,0.2,1.5,0.3c1.3,0.2,2.8,0.4,3.8,1.4c1,1,1.2,2.5,1.4,3.8c0.1,0.4,0.1,1.1,0.3,1.4c0.4,0,1-0.1,1.4-0.2
		c1.3-0.2,2.8-0.5,4.1,0.2c1.3,0.7,1.9,2,2.5,3.2c0.2,0.4,0.5,1,0.7,1.3c0.3-0.1,0.9-0.4,1.3-0.6C28.3,63.8,29.5,63.2,30.7,63.2z
		 M17.4,60.7L17.4,60.7L17.4,60.7z M54,60.7L54,60.7L54,60.7z M54.3,60.5L54.3,60.5L54.3,60.5z M17.2,60.5L17.2,60.5L17.2,60.5z
		 M10.4,53.8L10.4,53.8L10.4,53.8z M61.2,53.5L61.2,53.5L61.2,53.5z M10.2,53.5L10.2,53.5L10.2,53.5z M65.5,45.1L65.5,45.1
		L65.5,45.1z M5.9,44.8L5.9,44.8z M65.6,44.8L65.6,44.8L65.6,44.8z M67,35.5L67,35.5L67,35.5z M4.2,35.5L4.2,35.5L4.2,35.5z
		 M4.2,35.2L4.2,35.2z M65.5,25.9L65.5,25.9L65.5,25.9z M5.7,25.8L5.7,25.8L5.7,25.8z M5.8,25.5L5.8,25.5z M60.9,16.9L60.9,16.9
		L60.9,16.9z M54.2,10.2L54.2,10.2L54.2,10.2z M17,10.2L17,10.2L17,10.2z M17.2,10L17.2,10L17.2,10z M45.5,5.8L45.5,5.8z M45.2,5.7
		L45.2,5.7L45.2,5.7z M35.8,4.2L35.8,4.2z M35.5,4.2L35.5,4.2L35.5,4.2z"/>
</g>
<g>
	<path fill="#FF7A00" d="M35.6,58.8c-13,0-23.6-10.5-23.6-23.4s10.6-23.4,23.6-23.4s23.6,10.5,23.6,23.4S48.7,58.8,35.6,58.8z
		 M35.6,15.9C24.8,15.9,16,24.6,16,35.3c0,10.7,8.8,19.4,19.6,19.4c10.8,0,19.6-8.7,19.6-19.4C55.3,24.6,46.5,15.9,35.6,15.9z"/>
</g>
<g>
	<path fill="#FF7A00" d="M44,47.2l-8.3-4.4l-8.4,4.3l1.6-9.2l-6.7-6.5l9.3-1.4l4.2-8.3l4.2,8.3l9.4,1.4L42.4,38L44,47.2z M30.7,34.2
		l2.4,2.4l-0.6,3.3l3.1-1.6l3,1.6l-0.6-3.3l2.5-2.4l-3.4-0.5l-1.5-3l-1.5,3L30.7,34.2z"/>
</g>
</svg>
