<?xml version="1.0" encoding="utf-8"?><svg viewBox="0 0 339 120" xmlns="http://www.w3.org/2000/svg" xmlns:xlink="http://www.w3.org/1999/xlink"><style>:root>svg{display:none}:root>svg:target{display:block}</style><svg viewBox="0 0 83 82" id="Adv-1" xmlns="http://www.w3.org/2000/svg"><path d="M31.34 26.908c-7.754-.8-15.877 1.661-21.785 7.569-3.753 3.63-6.092 8.123-7.2 12.8 2.154 1.969 4.37 4 6.524 6.03l22.461-26.4zM55.647 49.8L28.324 72.384c2.339 2.4 4.616 4.8 6.831 7.2 4.738-1.046 9.292-3.384 12.985-7.077A25.943 25.943 0 0055.647 49.8zm-39.385-4.308L36.2 65.184l29.293-24.246A39.907 39.907 0 0079.4 2.908C65.431.383 50.6 5.122 40.816 16.569L16.262 45.492zm3.138 25.6c-2.523 2.523-15.323 6.093-15.323 6.093-.185.184 3.57-12.616 6.154-15.139 2.523-2.523 6.646-2.523 9.23 0 2.462 2.523 2.462 6.585-.061 9.046z"/><path d="M70.11 12.077a66.584 66.584 0 018.185 9.723c1.847-6.092 2.277-12.615 1.108-18.892-6.4-1.17-12.985-.8-19.2 1.046a71.542 71.542 0 019.908 8.123zm-5.045 17.661c-3.57 3.508-9.354 3.508-12.923 0-3.57-3.507-3.57-9.23 0-12.8 3.569-3.507 9.354-3.507 12.923 0 3.57 3.57 3.57 9.293 0 12.8zm-43.819 8.554l22.277 21.97"/></svg><svg viewBox="0 0 82 82" id="Adv-2" xmlns="http://www.w3.org/2000/svg"><path d="M40.633 79.78C19.413 79.78 2.22 62.404 2.22 41c0-21.402 17.195-38.78 38.414-38.78 21.22 0 38.415 17.378 38.415 38.78m-.002 0v1.22M78.865 44.72c-1.769 18.84-16.952 33.72-35.732 34.939"/><path d="M41.852 79.78h-1.22M61 31.183l-7.5-7.56-19.328 19.511-5.793-5.853-7.5 7.56L34.11 58.379 61 31.183z"/></svg><svg viewBox="0 0 82 82" id="Adv-3" xmlns="http://www.w3.org/2000/svg"><path d="M64.938 18.846v-5.908c0-3.016 2.461-5.416 5.476-5.416 3.016 0 5.477 2.4 5.477 5.416v5.908H64.937z"/><path d="M52.074 7.522h17.662c-2.708.308-4.8 2.585-4.8 5.354V31.83M14 70.39V71v-5m50.937 2.63v5.785c0 2.769-2.092 5.046-4.8 5.353H9.43"/><path d="M54.907 71.645v2.708c0 2.77 2.092 5.046 4.8 5.354H8.999c-2.707-.308-4.8-2.585-4.8-5.354v-2.707h50.708zm10.031-58.707c0-3.016 2.461-5.416 5.476-5.416 3.016 0 5.477 2.4 5.477 5.416v7.57"/><path d="M54.906 69.984v4.37c0 2.768 2.462 5.353 5.108 5.353M46.23 60.754a.683.683 0 01-.676.677H2.907a.683.683 0 01-.677-.677V2.907c0-.369.308-.677.677-.677h42.585c.37 0 .677.308.677.677v57.847h.062z"/><path d="M46.23 9.984v44.123c0 .37-.307.677-.676.677H2.907a.683.683 0 01-.677-.676V9.983"/><path d="M39.337 11.153H9.12v7.631h30.215v-7.63zM7.832 26.538h5.538m3.571 0h5.539m3.504 0h5.539m3.508 0h5.539M7.832 33.37h5.538m3.571 0h5.539m3.504 0h5.539m3.508 0h5.539M7.832 40.138h5.538m3.571 0h5.539m3.504 0h5.539m3.508 0h5.539M7.832 46.969h5.538m3.571 0h5.539m3.504 0h5.539m3.508 0h5.539m37.536 3.816c0 7.261-5.908 13.169-13.23 13.169-7.324 0-13.232-5.908-13.232-13.17 0-7.261 5.908-13.169 13.231-13.169 7.262-.061 13.231 5.846 13.231 13.17z"/><path d="M64.814 56.077V43.893l-4.185 4.369m1.293 7.754h5.723m8.245-31.139v10.585m5.354-5.293H70.598"/></svg><svg viewBox="0 0 71 86" id="Adv-4" xmlns="http://www.w3.org/2000/svg"><path d="M55.025 62.497l5.408 12.491-10.366-.322-6.954 7.598-3.863-8.821m-5.15-5.538l-5.86 14.359-7.083-7.47-10.302.516 3.284-8.242"/><path d="M69 35.325c0 1.675-3.09 3.091-3.348 4.7-.258 1.675 2.253 3.928 1.738 5.538-.515 1.61-3.927 1.996-4.636 3.477-.772 1.48.902 4.443-.064 5.795-.966 1.352-4.314.708-5.537 1.867-1.16 1.159-.515 4.507-1.867 5.473-1.353.966-4.314-.644-5.795.064-1.481.773-1.867 4.121-3.477 4.636-1.546.515-3.864-1.931-5.538-1.674-1.61.258-3.09 3.284-4.764 3.284-1.674 0-3.155-3.09-4.765-3.284-1.674-.257-3.992 2.19-5.537 1.674-1.61-.515-1.996-3.863-3.477-4.636-1.481-.772-4.443.902-5.795-.064-1.352-.966-.708-4.314-1.867-5.473-1.16-1.159-4.507-.515-5.537-1.867-.966-1.352.643-4.314-.065-5.795-.772-1.48-4.12-1.867-4.636-3.477-.515-1.545 1.996-3.863 1.739-5.537-.451-1.61-3.542-3.026-3.542-4.7 0-1.675 3.091-3.091 3.349-4.7.257-1.675-2.254-3.928-1.739-5.538.515-1.61 3.928-1.996 4.636-3.477.773-1.48-.901-4.443.064-5.795.966-1.352 4.314-.708 5.538-1.867 1.159-1.159.515-4.507 1.867-5.473 1.352-.966 4.314.644 5.795-.064 1.48-.773 1.867-4.121 3.477-4.636 1.545-.515 3.863 1.931 5.537 1.674 1.738-.129 3.155-3.22 4.893-3.22 1.675 0 3.155 3.091 4.765 3.284 1.674.258 3.992-2.189 5.537-1.674 1.61.515 1.996 3.863 3.477 4.636 1.481.773 4.443-.901 5.795.064 1.352.966.708 4.314 1.867 5.473 1.16 1.16 4.508.515 5.538 1.868.966 1.352-.644 4.314.064 5.794.773 1.481 4.12 1.868 4.636 3.477.515 1.546-1.996 3.863-1.738 5.538.321 1.545 3.412 2.96 3.412 4.635z"/><path d="M57.28 35.326c0 11.847-9.658 21.44-21.634 21.44s-21.634-9.593-21.634-21.44c0-11.848 9.658-21.441 21.634-21.441 11.911 0 21.634 9.594 21.634 21.44z"/><path d="M35.645 26.183l2.833 5.666 6.374.966-4.636 4.442 1.095 6.246-5.666-2.962-5.73 2.962 1.094-6.246-4.572-4.442 6.375-.966 2.833-5.666z"/></svg><svg viewBox="0 0 64 81" id="Adv-5" xmlns="http://www.w3.org/2000/svg"><path d="M62.91 77.43l-8.985-.615c-.492-2.707-1.477-5.17-2.892-7.446l4.861-5.723-5.784-5.785-5.6 4.739c-2.216-1.477-4.677-2.585-7.323-3.2l-.616-7.508h-8.184l-.616 7.262c-2.707.492-5.17 1.477-7.446 2.892l-5.723-4.862-5.785 5.785 4.739 5.6a21.45 21.45 0 00-3.2 7.262l-9.231.615"/><path d="M16.262 81c0-8.677 7.015-15.692 15.692-15.692M22.91 81a9.087 9.087 0 019.108-9.108A9.087 9.087 0 0141.126 81m20.058-10.585V22.477M40.939 2.23H2.785v68.185M45.863 17.8h12.923L45.863 4.938V17.8zm-34.398.123h21.477M11.465 44.446H28.51M11.465 26.784h39.508m-39.508 8.861h39.508"/></svg><svg viewBox="0 0 67 64" id="Adv-6" xmlns="http://www.w3.org/2000/svg"><path d="M12.813 39.902v9.931L33.712 62l20.85-12.166v-9.93M33.71 60.284v-19.81"/><path d="M55.608 27.79l-21.89 12.79 9.775 5.719 21.942-12.79-9.827-5.72zm-43.833 0l21.94 12.79-9.826 5.719L2 33.509l9.775-5.72zM23.89 9.28L2 22.07l9.775 5.719 14.402-8.423M43.49 9.28l21.941 12.79-9.826 5.719-14.714-8.631m-4.169 14.454v-19.03h4.16l-3.588-6.29L33.706 2 30.12 8.291l-3.588 6.291h4.16v19.03"/></svg><svg viewBox="0 0 17 16" id="All" xmlns="http://www.w3.org/2000/svg"><path d="M1.5 1h2v2h-2V1zm0 6h2v2h-2V7zm0 6h2v2h-2v-2zm6-12h2v2h-2V1zm0 6h2v2h-2V7zm0 6h2v2h-2v-2zm6-12h2v2h-2V1zm0 6h2v2h-2V7zm0 6h2v2h-2v-2z"/></svg><svg viewBox="0 0 25 24" id="All-news" xmlns="http://www.w3.org/2000/svg"><path d="M.5 0h24v24H.5z"/><path d="M12.5 22h9a1 1 0 001-1V3a1 1 0 00-1-1h-9m0 20h-9a1 1 0 01-1-1V3a1 1 0 011-1h9m0 20V2m2.5 9h5m-5 3.5h5M15 18h3.5M5 11h5m-5 3.5h5M5 18h3.5m10-12a1 1 0 11-2 0 1 1 0 012 0zm-10 0a1 1 0 11-2 0 1 1 0 012 0z"/></svg><svg viewBox="0 0 23 40" id="Arrow-Left" xmlns="http://www.w3.org/2000/svg"><path d="M21 38L3 20 21 2"/></svg><svg viewBox="0 0 23 40" id="Arrow-Right" xmlns="http://www.w3.org/2000/svg"><path d="M2 38l18-18L2 2"/></svg><svg viewBox="0 0 20 12" id="Arrow-cat" xmlns="http://www.w3.org/2000/svg"><path d="M1 1.5l9 9 9-9"/></svg><svg viewBox="0 0 24 25" id="Cart" xmlns="http://www.w3.org/2000/svg"><path d="M8 20.5a1 1 0 11-2 0 1 1 0 012 0zm10 0a1 1 0 11-2 0 1 1 0 012 0zM1 3.5h2.5l1 2m0 0h15.328a.1.1 0 01.087.15L16 12.5H8l-.5-1m-3-6l3 6m11.5 5H6.618a1 1 0 01-.894-1.447L7.5 11.5"/></svg><svg viewBox="0 0 16 16" id="Catalog" xmlns="http://www.w3.org/2000/svg"><path d="M1 1h2v2H1V1zm0 6h2v2H1V7zm0 6h2v2H1v-2zM7 1h2v2H7V1zm0 6h2v2H7V7zm0 6h2v2H7v-2zm6-12h2v2h-2V1zm0 6h2v2h-2V7zm0 6h2v2h-2v-2z"/></svg><svg viewBox="0 0 14 11" id="Check" xmlns="http://www.w3.org/2000/svg"><path d="M1.287 5l3.928 3.93 7.5-7.5"/></svg><svg viewBox="0 0 120 120" id="Checked" xmlns="http://www.w3.org/2000/svg"><path d="M118.204 60.06c0 32.063-26.082 58.145-58.146 58.145-32.183 0-58.265-26.082-58.265-58.145 0-32.184 26.082-58.266 58.265-58.266 32.064 0 58.146 26.082 58.146 58.266z"/><path d="M60.055 106.241c-25.483 0-46.301-20.698-46.301-46.301 0-25.484 20.698-46.301 46.301-46.301s46.301 20.698 46.301 46.3c-.12 25.604-20.817 46.302-46.301 46.302z"/><path d="M90.929 45.343L79.563 33.977 50.25 63.17l-8.854-8.734L30.03 65.802l20.1 20.339 40.798-40.798z"/></svg><svg viewBox="0 0 26 26" id="Close" xmlns="http://www.w3.org/2000/svg"><path d="M25 1L13 13m0 0L1 25m12-12l12 12M13 13L1 1"/></svg><svg viewBox="0 0 339 36" id="Dev" xmlns="http://www.w3.org/2000/svg"><rect width="339" height="35.374" rx="17.687"/><path d="M22.166 12.887c1.064 0 1.895.294 2.492.882.597.579.896 1.33.896 2.254 0 .933-.303 1.699-.91 2.296-.597.597-1.423.896-2.478.896h-2.772v3.472h-1.162v-9.8h3.934zm-.042 5.222c.737 0 1.297-.196 1.68-.588.383-.392.574-.887.574-1.484s-.191-1.087-.574-1.47c-.383-.383-.943-.574-1.68-.574h-2.73v4.116h2.73zm11.429 4.578l-1.162-2.94h-4.55l-1.162 2.94h-1.232l3.92-9.8h1.498l3.92 9.8h-1.232zm-5.264-4.046h3.668l-1.834-4.648-1.834 4.648zm13.13-1.12c.55.168.984.467 1.301.896.318.43.476.938.476 1.526 0 .887-.331 1.591-.994 2.114-.653.523-1.53.784-2.632.784-1.064 0-1.955-.247-2.674-.742-.718-.504-1.148-1.241-1.288-2.212h1.176c.27 1.232 1.195 1.848 2.772 1.848.775 0 1.377-.168 1.806-.504.439-.336.658-.793.658-1.372 0-.523-.182-.938-.546-1.246-.354-.317-.92-.476-1.694-.476h-1.54v-1.022h1.19c1.493 0 2.24-.504 2.24-1.512 0-.541-.205-.97-.616-1.288-.41-.317-.961-.476-1.652-.476-.681 0-1.223.13-1.624.392-.401.261-.681.705-.84 1.33h-1.176c.178-.97.584-1.685 1.218-2.142.644-.457 1.46-.686 2.45-.686.99 0 1.806.257 2.45.77.644.504.966 1.157.966 1.96a2.2 2.2 0 01-.378 1.26c-.252.364-.602.63-1.05.798zm7.558-4.634c1.064 0 1.894.294 2.492.882.597.579.895 1.33.895 2.254 0 .933-.303 1.699-.91 2.296-.597.597-1.423.896-2.477.896h-2.772v3.472h-1.163v-9.8h3.934zm-.042 5.222c.737 0 1.297-.196 1.68-.588.382-.392.573-.887.573-1.484s-.19-1.087-.574-1.47c-.382-.383-.942-.574-1.68-.574h-2.73v4.116h2.73zm11.428 4.578l-1.162-2.94h-4.55l-1.162 2.94h-1.232l3.92-9.8h1.498l3.92 9.8h-1.232zM55.1 18.641h3.668l-1.834-4.648-1.834 4.648zm12.311-1.834c1.064 0 1.867.261 2.408.784.55.523.826 1.237.826 2.142 0 .905-.285 1.624-.854 2.156-.57.532-1.386.798-2.45.798h-4.032v-9.8h6.65v1.106H64.47v2.814h2.94zm-.112 4.774c.719 0 1.26-.168 1.624-.504.364-.336.546-.789.546-1.358 0-.57-.172-1.017-.518-1.344-.336-.327-.863-.49-1.582-.49H64.47v3.696h2.828zm6.234-7.392c.98-.97 2.184-1.456 3.612-1.456s2.622.485 3.584 1.456c.97.961 1.456 2.16 1.456 3.598 0 1.437-.486 2.641-1.456 3.612-.971.961-2.17 1.442-3.598 1.442s-2.628-.48-3.598-1.442c-.971-.97-1.456-2.175-1.456-3.612 0-1.437.485-2.637 1.456-3.598zm3.598-.35c-1.092 0-2.012.378-2.758 1.134-.747.756-1.12 1.694-1.12 2.814s.373 2.058 1.12 2.814c.746.756 1.666 1.134 2.758 1.134 1.101 0 2.02-.373 2.758-1.12.746-.756 1.12-1.699 1.12-2.828 0-1.13-.374-2.067-1.12-2.814-.738-.756-1.657-1.134-2.758-1.134zm13.488-.952v1.106h-3.164v8.694h-1.176v-8.694h-3.15v-1.106h7.49zm8.968 9.8h-1.498l-4.606-4.76v4.76H92.32v-9.8h1.162v4.592l4.452-4.592h1.484l-4.634 4.802 4.802 4.998zm9.053 0l-1.162-2.94h-4.55l-1.162 2.94h-1.232l3.92-9.8h1.498l3.92 9.8h-1.232zm-5.264-4.046h3.668l-1.834-4.648-1.834 4.648zm18.93-5.754h1.428v9.8h-1.162v-4.102l.098-4.144-5.53 8.246h-1.428v-9.8h1.162v4.102l-.098 4.144 5.53-8.246zm16.017 0v9.8h-1.162v-8.694h-5.684v8.694h-1.162v-9.8h8.008zm3.501 1.302c.98-.97 2.184-1.456 3.612-1.456s2.622.485 3.584 1.456c.97.961 1.456 2.16 1.456 3.598 0 1.437-.486 2.641-1.456 3.612-.971.961-2.17 1.442-3.598 1.442s-2.628-.48-3.598-1.442c-.971-.97-1.456-2.175-1.456-3.612 0-1.437.485-2.637 1.456-3.598zm3.598-.35c-1.092 0-2.012.378-2.758 1.134-.747.756-1.12 1.694-1.12 2.814s.373 2.058 1.12 2.814c.746.756 1.666 1.134 2.758 1.134 1.101 0 2.02-.373 2.758-1.12.746-.756 1.12-1.699 1.12-2.828 0-1.13-.374-2.067-1.12-2.814-.738-.756-1.657-1.134-2.758-1.134zm14.757 7.742h1.4v3.164h-1.176v-2.058h-8.162v2.058h-1.162v-3.164h1.4c.308-.224.555-.877.742-1.96l1.106-6.734h5.852v8.694zm-5.81-1.89c-.159.924-.35 1.554-.574 1.89h5.222v-7.588h-3.71l-.938 5.698zm17.54 1.89h1.4v3.164h-1.176v-2.058h-8.162v2.058h-1.162v-3.164h1.4c.308-.224.555-.877.742-1.96l1.106-6.734h5.852v8.694zm-5.81-1.89c-.159.924-.35 1.554-.574 1.89h5.222v-7.588h-3.71l-.938 5.698zm15.139-5.698h-5.054v3.108h4.718v1.106h-4.718v3.374h5.054v1.106h-6.216v-9.8h6.216v1.106zm5.784-1.106c1.064 0 1.895.294 2.492.882.598.579.896 1.33.896 2.254 0 .933-.303 1.699-.91 2.296-.597.597-1.423.896-2.478.896h-2.772v3.472h-1.162v-9.8h3.934zm-.042 5.222c.738 0 1.298-.196 1.68-.588.383-.392.574-.887.574-1.484s-.191-1.087-.574-1.47c-.382-.383-.942-.574-1.68-.574h-2.73v4.116h2.73zm16.86 4.578h-1.47l-4.396-4.746v4.746h-1.162v-4.746l-4.396 4.746h-1.47l4.578-4.998-4.41-4.802h1.456l4.242 4.578v-4.578h1.162v4.578l4.242-4.578h1.456l-4.41 4.802 4.578 4.998zm8.977 0h-1.498l-4.606-4.76v4.76h-1.162v-9.8h1.162v4.592l4.452-4.592h1.484l-4.634 4.802 4.802 4.998zm9.053 0l-1.162-2.94h-4.55l-1.162 2.94h-1.232l3.92-9.8h1.498l3.92 9.8h-1.232zm-5.264-4.046h3.668l-1.834-4.648-1.834 4.648zM232.091 22.043l-3.248-3.262 3.248-3.262 1.372 1.386-1.89 1.876 1.89 1.876-1.372 1.386zm4.102 0l-3.262-3.262 3.262-3.262 1.358 1.386-1.89 1.876 1.89 1.876-1.358 1.386zm8.196.812c-1.456 0-2.665-.48-3.626-1.442-.961-.97-1.442-2.18-1.442-3.626 0-1.447.481-2.65 1.442-3.612.961-.97 2.17-1.456 3.626-1.456 1.157 0 2.161.327 3.01.98a4.62 4.62 0 011.722 2.548h-2.142a2.636 2.636 0 00-1.036-1.19c-.448-.29-.971-.434-1.568-.434-.896 0-1.629.299-2.198.896-.56.588-.84 1.344-.84 2.268 0 .924.28 1.685.84 2.282.569.588 1.302.882 2.198.882.597 0 1.12-.14 1.568-.42.457-.29.803-.69 1.036-1.204h2.142a4.688 4.688 0 01-1.722 2.562c-.849.644-1.853.966-3.01.966zm12.349-9.968h2.296v9.8h-2.002v-4.102l.182-2.758-4.27 6.86h-2.296v-9.8h2.002v4.102l-.182 2.758 4.27-6.86zm11.329 0v1.904h-2.828v7.896h-2.002v-7.896h-2.814v-1.904h7.644zm7.47 0h2.296v9.8h-2.002v-4.102l.182-2.758-4.27 6.86h-2.296v-9.8h2.002v4.102l-.182 2.758 4.27-6.86zm9.061 9.968c-1.456 0-2.665-.48-3.626-1.442-.961-.97-1.442-2.18-1.442-3.626 0-1.447.481-2.65 1.442-3.612.961-.97 2.17-1.456 3.626-1.456 1.157 0 2.161.327 3.01.98a4.62 4.62 0 011.722 2.548h-2.142a2.636 2.636 0 00-1.036-1.19c-.448-.29-.971-.434-1.568-.434-.896 0-1.629.299-2.198.896-.56.588-.84 1.344-.84 2.268 0 .924.28 1.685.84 2.282.569.588 1.302.882 2.198.882.597 0 1.12-.14 1.568-.42.457-.29.803-.69 1.036-1.204h2.142a4.688 4.688 0 01-1.722 2.562c-.849.644-1.853.966-3.01.966zm7.687-.812l-1.358-1.386 1.89-1.876-1.89-1.876 1.358-1.386 3.262 3.262-3.262 3.262zm4.088 0l-1.358-1.386 1.89-1.876-1.89-1.876 1.358-1.386 3.262 3.262-3.262 3.262z"/><g opacity=".5" fill-rule="evenodd" clip-rule="evenodd"><path d="M316.487 18.046c-.782-.582-1.106-1.381-.359-2.49.902-1.337 2.245-2.83 3.651-4.022.581-.472.615-.635.119-1.293l-1.906-2.402c-.396-.486-.417-.566-1.103-.162-1.796.936-3.764 3.02-5.168 5.103-2.668 3.959-1.945 7.178.203 9.33.301.302.869.33 1.235-.099l3.429-3.382a.396.396 0 00-.101-.583zM318.359 19.06c.782.581 1.106 1.38.359 2.49-.901 1.336-2.245 2.829-3.65 4.021-.582.472-.616.635-.12 1.293l1.906 2.402c.397.486.417.566 1.103.163 1.796-.936 3.764-3.02 5.168-5.104 2.668-3.96 1.946-7.179-.202-9.33-.301-.302-.869-.331-1.235.098l-3.43 3.382a.399.399 0 00.101.584z"/><path d="M316.487 18.046c-.782-.582-1.106-1.381-.359-2.49.902-1.337 2.245-2.83 3.651-4.022.581-.472.615-.635.119-1.293l-1.906-2.402c-.396-.486-.417-.566-1.103-.162-1.796.936-3.764 3.02-5.168 5.103-2.668 3.959-1.945 7.178.203 9.33.301.302.869.33 1.235-.099l3.429-3.382a.396.396 0 00-.101-.583zM318.359 19.06c.782.581 1.106 1.38.359 2.49-.901 1.336-2.245 2.829-3.65 4.021-.582.472-.616.635-.12 1.293l1.906 2.402c.397.486.417.566 1.103.163 1.796-.936 3.764-3.02 5.168-5.104 2.668-3.96 1.946-7.179-.202-9.33-.301-.302-.869-.331-1.235.098l-3.43 3.382a.399.399 0 00.101.584z"/></g><path fill-rule="evenodd" clip-rule="evenodd" d="M316.487 16.455c-.782-.582-1.106-1.381-.359-2.49.902-1.337 2.245-2.83 3.651-4.022.581-.472.615-.635.119-1.293l-1.906-2.401c-.396-.487-.417-.567-1.103-.163-1.796.936-3.764 3.02-5.168 5.103-2.668 3.96-1.945 7.178.203 9.33.301.302.869.33 1.235-.099l3.429-3.382a.396.396 0 00-.101-.583zM318.359 17.468c.782.582 1.106 1.382.359 2.49-.901 1.338-2.245 2.83-3.65 4.022-.582.472-.616.635-.12 1.294l1.906 2.4c.397.487.417.567 1.103.164 1.796-.936 3.764-3.02 5.168-5.104 2.668-3.96 1.946-7.179-.202-9.33-.301-.302-.869-.33-1.235.098l-3.43 3.382a.399.399 0 00.101.584z"/><path fill-rule="evenodd" clip-rule="evenodd" d="M316.487 16.455c-.782-.582-1.106-1.381-.359-2.49.902-1.337 2.245-2.83 3.651-4.022.581-.472.615-.635.119-1.293l-1.906-2.401c-.396-.487-.417-.567-1.103-.163-1.796.936-3.764 3.02-5.168 5.103-2.668 3.96-1.945 7.178.203 9.33.301.302.869.33 1.235-.099l3.429-3.382a.396.396 0 00-.101-.583zM318.359 17.468c.782.582 1.106 1.382.359 2.49-.901 1.338-2.245 2.83-3.65 4.022-.582.472-.616.635-.12 1.294l1.906 2.4c.397.487.417.567 1.103.164 1.796-.936 3.764-3.02 5.168-5.104 2.668-3.96 1.946-7.179-.202-9.33-.301-.302-.869-.33-1.235.098l-3.43 3.382a.399.399 0 00.101.584z"/><defs><linearGradient id="aqa" x1="314.191" y1="25.027" x2="315.531" y2="8.953" gradientUnits="userSpaceOnUse"><stop stop-color="#409464"/><stop offset="1" stop-color="#A5CD39"/></linearGradient><linearGradient id="aqb" x1="319.745" y1="22.807" x2="320.347" y2="17.38" gradientUnits="userSpaceOnUse"><stop stop-color="#EDA618"/><stop offset="1" stop-color="#F48120"/></linearGradient><linearGradient id="aqc" x1="314.191" y1="25.027" x2="315.531" y2="8.953" gradientUnits="userSpaceOnUse"><stop stop-color="#409464"/><stop offset="1" stop-color="#A5CD39"/></linearGradient><linearGradient id="aqd" x1="321.005" y1="18.553" x2="317.856" y2="28.902" gradientUnits="userSpaceOnUse"><stop stop-color="#EDA618"/><stop offset="1" stop-color="#F48120"/></linearGradient><linearGradient id="aqe" x1="314.191" y1="23.436" x2="315.531" y2="7.362" gradientUnits="userSpaceOnUse"><stop stop-color="#409464"/><stop offset="1" stop-color="#A5CD39"/></linearGradient><linearGradient id="aqf" x1="319.745" y1="21.216" x2="320.347" y2="15.789" gradientUnits="userSpaceOnUse"><stop stop-color="#EDA618"/><stop offset="1" stop-color="#F48120"/></linearGradient><linearGradient id="aqg" x1="314.191" y1="23.436" x2="315.531" y2="7.362" gradientUnits="userSpaceOnUse"><stop stop-color="#409464"/><stop offset="1" stop-color="#A5CD39"/></linearGradient><linearGradient id="aqh" x1="321.005" y1="16.962" x2="317.856" y2="27.311" gradientUnits="userSpaceOnUse"><stop stop-color="#EDA618"/><stop offset="1" stop-color="#F48120"/></linearGradient></defs></svg><svg viewBox="0 0 82 82" id="Group" xmlns="http://www.w3.org/2000/svg"><path d="M40.633 79.78C19.413 79.78 2.22 62.404 2.22 41c0-21.402 17.195-38.78 38.414-38.78 21.22 0 38.415 17.378 38.415 38.78m-.002 0v1.22M78.865 44.72c-1.769 18.84-16.952 33.72-35.732 34.939"/><path d="M41.852 79.78h-1.22M61 31.183l-7.5-7.56-19.328 19.511-5.793-5.853-7.5 7.56L34.11 58.379 61 31.183z"/></svg><svg viewBox="0 0 71 86" id="Group_2" xmlns="http://www.w3.org/2000/svg"><path d="M42.5 85.9l-5.1-11.7 3.7-1.6 2.6 6 5.5-6 8.1.3-4.1-9.6 3.7-1.6 6.6 15.4-12.6-.4zm-13.6 0l-8.6-9.1-12.5.7 4.5-11.2 3.7 1.5-2.1 5.4 8.1-.4 5.6 5.8 4.6-11.5 3.8 1.6z"/><path d="M35.7 70.5c-1.7 0-2.9-1.3-3.9-2.3-.3-.3-.9-.9-1.1-1-.3 0-1 .4-1.5.7-1.2.7-2.8 1.5-4.4.9-1.6-.5-2.4-2.1-3-3.4-.2-.4-.5-1.1-.7-1.3-.3 0-1.1.1-1.5.2-1.4.3-3.1.6-4.5-.4s-1.7-2.8-1.8-4.2c-.1-.5-.2-1.2-.3-1.5-.3-.1-1-.2-1.5-.3-1.4-.2-3.2-.4-4.2-1.8s-.7-3.2-.5-4.6c.1-.5.2-1.2.2-1.5-.2-.2-.9-.5-1.3-.7-1.3-.6-2.9-1.4-3.4-3.1-.5-1.6.3-3.1 1-4.4l.7-1.4c-.2-.3-.7-.8-1.1-1.1-1.1-1-2.5-2.3-2.5-4 0-1.7 1.3-3 2.3-3.9.3-.3.9-.8 1-1.1-.1-.3-.4-1-.7-1.4-.7-1.2-1.5-2.8-1-4.4.5-1.7 2.1-2.4 3.4-3 .4-.2 1.1-.5 1.3-.7 0-.3-.1-1.1-.2-1.6-.3-1.4-.6-3.1.4-4.5s2.8-1.7 4.2-1.8c.5-.1 1.3-.2 1.6-.3.1-.2.2-1 .3-1.5.2-1.4.4-3.2 1.8-4.2s3.1-.7 4.5-.4c.5.1 1.2.2 1.5.2.2-.2.5-.9.7-1.3.6-1.3 1.4-2.9 3.1-3.4 1.6-.5 3.1.3 4.4.9.5.2 1.2.7 1.5.7h.1c.2-.1.8-.7 1.1-1 1-1 2.2-2.2 3.9-2.2 1.7 0 2.9 1.3 3.9 2.3.3.3.9.9 1.1 1 .3 0 1-.4 1.5-.7 1.2-.7 2.8-1.5 4.4-.9 1.6.5 2.4 2.1 3 3.4.2.4.5 1.1.7 1.3.3 0 1.1-.1 1.5-.2 1.4-.3 3.1-.6 4.5.4s1.7 2.8 1.8 4.2c.1.5.2 1.2.3 1.5.3.1 1 .2 1.5.3 1.4.2 3.2.4 4.2 1.8s.7 3.2.5 4.6c-.1.5-.2 1.2-.2 1.5.2.2.9.5 1.3.7 1.3.6 2.9 1.4 3.4 3.1.5 1.6-.3 3.1-1 4.4-.2.4-.6 1.1-.7 1.4l1 1c1.1 1 2.4 2.2 2.4 4 0 1.7-1.3 3-2.3 3.9-.3.3-.9.8-1 1.1.1.3.4 1 .7 1.4.7 1.2 1.5 2.8 1 4.4-.5 1.7-2.1 2.4-3.4 3-.4.2-1.1.5-1.3.7 0 .3.1 1.1.2 1.6.3 1.4.6 3.1-.4 4.5s-2.8 1.7-4.2 1.8c-.5.1-1.3.2-1.6.3-.1.2-.2 1-.3 1.5-.2 1.4-.4 3.2-1.8 4.2s-3.1.7-4.5.4c-.5-.1-1.2-.2-1.5-.2-.2.2-.5.9-.7 1.3-.6 1.3-1.4 2.9-3.1 3.4-1.6.5-3.1-.3-4.4-.9-.4-.2-1.1-.6-1.4-.7-.3.2-.8.7-1.1 1-.9 1-2.2 2.3-3.9 2.3zm.2-4zm-5.2-3.3h.6c1.4.2 2.5 1.2 3.4 2.2.3.3.8.8 1.1 1 .3-.2.8-.7 1.1-1 .9-.9 1.9-2 3.3-2.2 1.5-.2 2.8.5 4 1.1.4.2.9.5 1.3.6.2-.3.5-.9.7-1.3.6-1.2 1.2-2.5 2.5-3.2 1.3-.6 2.8-.4 4-.2.4.1 1.1.2 1.5.2.1-.3.2-1 .3-1.4.2-1.3.4-2.8 1.4-3.8 1.1-1 2.5-1.2 3.8-1.4.4-.1 1.1-.1 1.4-.3 0-.4-.1-1-.2-1.4-.2-1.3-.5-2.8.2-4.1.6-1.3 2-1.9 3.2-2.5.4-.2 1-.5 1.3-.7-.1-.3-.4-.9-.6-1.3-.6-1.2-1.3-2.5-1.1-3.9.2-1.4 1.3-2.5 2.2-3.4.3-.3.8-.7 1-1-.2-.3-.7-.8-1.1-1.1-.9-.9-2-1.8-2.2-3.2v-.1c-.2-1.5.5-2.8 1.1-4 .2-.4.5-.9.6-1.3-.3-.2-.9-.5-1.3-.7-1.2-.6-2.5-1.2-3.2-2.5-.6-1.3-.4-2.8-.2-4 .1-.4.2-1.1.2-1.5-.4-.1-1-.2-1.5-.3-1.3-.2-2.8-.4-3.8-1.4-1-1-1.2-2.5-1.4-3.8-.1-.4-.1-1.1-.3-1.4-.4 0-1 .1-1.4.2-1.3.2-2.8.5-4.1-.2-1.3-.7-1.9-2-2.5-3.2-.2-.4-.5-1-.7-1.3-.3.5-.9.8-1.3 1-1.2.6-2.5 1.3-3.9 1.1-1.4-.2-2.5-1.2-3.4-2.2-.3-.3-.8-.8-1.1-1-.3.2-.8.7-1.1 1-.9.9-2 2-3.6 2.2-1.4.2-2.7-.5-3.9-1.1-.4-.2-.9-.5-1.3-.6-.1.2-.4.8-.5 1.2-.6 1.2-1.2 2.5-2.5 3.2-1.3.6-2.8.4-4 .2-.4-.1-1.1-.2-1.5-.2-.1.3-.2 1-.3 1.4-.2 1.3-.4 2.8-1.4 3.8-1.1 1-2.5 1.2-3.8 1.4-.4.1-1.1.1-1.4.3 0 .4.1 1 .2 1.4.2 1.3.5 2.8-.2 4.1-.6 1.3-2 1.9-3.2 2.5-.4.2-1 .5-1.3.7.1.3.4.9.6 1.3.6 1.2 1.3 2.5 1.1 3.9-.2 1.4-1.3 2.5-2.2 3.4-.3.3-.8.7-1 1 .2.3.8.8 1.1 1.1.9.8 1.9 1.8 2.3 3.1l.1.2c.2 1.5-.5 2.8-1.1 4-.3.2-.6.8-.7 1.1.3.2.9.5 1.3.7 1.2.6 2.5 1.2 3.2 2.5.6 1.3.4 2.8.2 4-.1.4-.2 1.1-.2 1.5.4.1 1 .2 1.5.3 1.3.2 2.8.4 3.8 1.4 1 1 1.2 2.5 1.4 3.8.1.4.1 1.1.3 1.4.4 0 1-.1 1.4-.2 1.3-.2 2.8-.5 4.1.2 1.3.7 1.9 2 2.5 3.2.2.4.5 1 .7 1.3.3-.1.9-.4 1.3-.6.8-.6 2-1.2 3.2-1.2zm-13.3-2.5zm36.6 0zm.3-.2zm-37.1 0zm-6.8-6.7zm50.8-.3zm-51 0zm55.3-8.4zm-59.6-.3zm59.7 0zm1.4-9.3zm-62.8 0zm0-.3zm61.3-9.3zm-59.8-.1zm.1-.3zm55.1-8.6zm-6.7-6.7zm-37.2 0zm.2-.2zm28.3-4.2zm-.3-.1zm-9.4-1.5zm-.3 0z"/><path d="M35.6 58.8c-13 0-23.6-10.5-23.6-23.4S22.6 12 35.6 12s23.6 10.5 23.6 23.4-10.5 23.4-23.6 23.4zm0-42.9C24.8 15.9 16 24.6 16 35.3s8.8 19.4 19.6 19.4S55.2 46 55.2 35.3c.1-10.7-8.7-19.4-19.6-19.4z"/><path d="M44 47.2l-8.3-4.4-8.4 4.3 1.6-9.2-6.7-6.5 9.3-1.4 4.2-8.3 4.2 8.3 9.4 1.4-6.9 6.6 1.6 9.2zm-13.3-13l2.4 2.4-.6 3.3 3.1-1.6 3 1.6-.6-3.3 2.5-2.4-3.4-.5-1.5-3-1.5 3-3.4.5z"/></svg><svg viewBox="0 0 150 118" id="Like" xmlns="http://www.w3.org/2000/svg"><path d="M60.33 98.084h9.73c3.443 4.642 9.131 7.787 15.419 7.787h39.82c4.791 0 8.683-3.894 8.683-8.686s-3.892-8.685-8.683-8.685h6.886c4.791 0 8.683-3.893 8.683-8.685 0-4.792-3.892-8.686-8.683-8.686h2.246c4.79 0 8.683-3.893 8.683-8.685 0-4.792-3.893-8.685-8.683-8.685h4.641c4.79 0 8.682-3.894 8.682-8.685 0-4.792-3.892-8.686-8.682-8.686H114.67c-.449 0-1.047 0-1.497.15h-9.73l2.994-10.782V13.178c0-5.99-4.94-10.932-10.928-10.932h-4.043v16.622l-4.19 5.99-15.72 17.37c-2.245 2.396-3.892 5.391-4.79 8.686H60.33"/><path d="M51.797 47.32h8.832v60.647h-8.832"/><path d="M0 47.32h52.245v68.434H0"/><path d="M43.863 100.33c0 2.695-2.246 4.942-4.94 4.942-2.695 0-4.94-2.247-4.94-4.942 0-2.695 2.245-4.942 4.94-4.942 2.694 0 4.94 2.246 4.94 4.942z"/></svg><svg viewBox="0 0 56 57" id="Logo" xmlns="http://www.w3.org/2000/svg"><g opacity=".6"><path d="M28.402 52.015L55.522 41.3v4.508l-27.12 10.717v-4.509zM28.404 52.014l27.12-10.716L27.12 33.98 0 44.697l28.404 7.317z"/><mask id="aua" maskUnits="userSpaceOnUse" x="0" y="33" width="56" height="20"><path d="M28.404 52.014l27.12-10.716L27.12 33.98 0 44.697l28.404 7.317z"/></mask><g filter="url(#aub)" mask="url(#aua)"><path d="M28.276 48.338l21.598-8.532-22.62-5.825-21.598 8.531 22.62 5.826z"/></g><path d="M28.404 52.015L0 44.697v4.509l28.404 7.317v-4.508z"/></g><g opacity=".7"><path d="M28.402 43.931l27.12-10.716v4.508L28.403 48.44v-4.51z"/><path d="M28.404 43.93l27.12-10.716-28.404-7.317L0 36.612l28.404 7.318z"/><mask id="aub" maskUnits="userSpaceOnUse" x="0" y="25" width="56" height="19"><path d="M28.404 43.93l27.12-10.716-28.404-7.317L0 36.612l28.404 7.318z"/></mask><g filter="url(#aud)" mask="url(#aub)"><path d="M28.276 40.254l21.598-8.531-22.62-5.826-21.598 8.531 22.62 5.826z"/></g><path d="M28.404 43.931L0 36.613v4.509l28.404 7.318v-4.51z"/></g><g opacity=".8"><path d="M28.402 35.548l27.12-10.716v4.509l-27.12 10.716v-4.509z"/><path d="M28.404 35.548l27.12-10.717-28.404-7.317L0 28.23l28.404 7.318z"/><mask id="auc" maskUnits="userSpaceOnUse" x="0" y="17" width="56" height="19"><path d="M28.404 35.548l27.12-10.717-28.404-7.317L0 28.23l28.404 7.318z"/></mask><g filter="url(#auf)" mask="url(#auc)"><path d="M28.276 31.872l21.598-8.532-22.62-5.826-21.598 8.532 22.62 5.826z"/></g><path d="M28.404 35.548L0 28.23v4.509l28.404 7.318v-4.509z"/></g><g opacity=".9"><path d="M28.402 27.166l27.12-10.717v4.509l-27.12 10.716v-4.508z"/><path d="M28.404 27.166l27.12-10.716L27.12 9.132 0 19.848l28.404 7.318z"/><mask id="aud" maskUnits="userSpaceOnUse" x="0" y="9" width="56" height="19"><path d="M28.404 27.166l27.12-10.716L27.12 9.132 0 19.848l28.404 7.318z"/></mask><g filter="url(#auh)" mask="url(#aud)"><path d="M28.276 23.49l21.598-8.532-22.62-5.826-21.598 8.532 22.62 5.826z"/></g><path d="M28.404 27.166L0 19.85v4.508l28.404 7.318v-4.509z"/></g><path d="M28.402 18.785l27.12-10.717v4.509l-27.12 10.716v-4.508z"/><path d="M28.404 18.784l27.12-10.716L27.12.75 0 11.466l28.404 7.318zM28.404 18.785L0 11.467v4.508l28.404 7.318v-4.508z"/><defs><filter id="aub" x="1.666" y="29.99" width="52.2" height="22.339" filterUnits="userSpaceOnUse" color-interpolation-filters="sRGB"><feFlood flood-opacity="0" result="BackgroundImageFix"/><feBlend in="SourceGraphic" in2="BackgroundImageFix" result="shape"/><feGaussianBlur stdDeviation="1.995" result="effect1_foregroundBlur_422_2687"/></filter><filter id="aud" x="1.666" y="21.906" width="52.2" height="22.339" filterUnits="userSpaceOnUse" color-interpolation-filters="sRGB"><feFlood flood-opacity="0" result="BackgroundImageFix"/><feBlend in="SourceGraphic" in2="BackgroundImageFix" result="shape"/><feGaussianBlur stdDeviation="1.995" result="effect1_foregroundBlur_422_2687"/></filter><filter id="auf" x="1.666" y="13.523" width="52.2" height="22.339" filterUnits="userSpaceOnUse" color-interpolation-filters="sRGB"><feFlood flood-opacity="0" result="BackgroundImageFix"/><feBlend in="SourceGraphic" in2="BackgroundImageFix" result="shape"/><feGaussianBlur stdDeviation="1.995" result="effect1_foregroundBlur_422_2687"/></filter><filter id="auh" x="1.666" y="5.141" width="52.2" height="22.339" filterUnits="userSpaceOnUse" color-interpolation-filters="sRGB"><feFlood flood-opacity="0" result="BackgroundImageFix"/><feBlend in="SourceGraphic" in2="BackgroundImageFix" result="shape"/><feGaussianBlur stdDeviation="1.995" result="effect1_foregroundBlur_422_2687"/></filter></defs></svg><svg viewBox="0 0 16 16" id="Mail" xmlns="http://www.w3.org/2000/svg"><path d="M1.336 4.333c0-.369.298-.667.667-.667h12c.368 0 .666.298.666.667v8a.667.667 0 01-.666.666h-12a.667.667 0 01-.667-.666v-8z"/><path d="M1.336 4.333l6.667 4 6.666-4"/></svg><svg viewBox="0 0 27 33" id="Map" xmlns="http://www.w3.org/2000/svg"><path d="M14.828 30.769l1.103 1.016-1.103-1.016zm-2.322 0l-1.104 1.016 1.104-1.016zm11.327-17.102c0 .97-.365 2.25-1.082 3.768-.706 1.492-1.692 3.09-2.793 4.665-2.202 3.147-4.777 6.07-6.234 7.653l2.207 2.032c1.495-1.623 4.172-4.659 6.485-7.965 1.156-1.652 2.244-3.404 3.047-5.104.791-1.674 1.37-3.427 1.37-5.05h-3zM13.61 29.753c-1.457-1.582-4.032-4.506-6.234-7.653-1.101-1.574-2.087-3.173-2.792-4.666-.718-1.517-1.083-2.797-1.083-3.767h-3c0 1.622.58 3.375 1.37 5.05.804 1.7 1.891 3.45 3.047 5.103 2.313 3.306 4.99 6.341 6.485 7.965l2.207-2.032zM3.5 13.667C3.5 8.052 8.052 3.5 13.667 3.5v-3C6.395.5.5 6.395.5 13.667h3zM13.667 3.5c5.615 0 10.166 4.552 10.166 10.167h3C26.833 6.395 20.938.5 13.667.5v3zm.057 26.253a.1.1 0 01-.033.025.062.062 0 01-.049 0 .1.1 0 01-.033-.025l-2.207 2.032a3.067 3.067 0 004.53 0l-2.208-2.032zm3.443-16.086a3.5 3.5 0 01-3.5 3.5v3a6.5 6.5 0 006.5-6.5h-3zm-3.5 3.5a3.5 3.5 0 01-3.5-3.5h-3a6.5 6.5 0 006.5 6.5v-3zm-3.5-3.5a3.5 3.5 0 013.5-3.5v-3a6.5 6.5 0 00-6.5 6.5h3zm3.5-3.5a3.5 3.5 0 013.5 3.5h3a6.5 6.5 0 00-6.5-6.5v3z"/></svg><svg viewBox="0 0 24 24" id="Mobile" xmlns="http://www.w3.org/2000/svg"><path d="M19.3 13.716a9.827 9.827 0 00-.154-7.651L15.87 6a.097.097 0 00-.1.097l-.027 4.02c0 .026.01.051.028.07l3.53 3.529zm0 0a9.956 9.956 0 01-2.22 3.365 9.956 9.956 0 01-3.364 2.219m0 0a9.827 9.827 0 01-7.651-.154L6 15.87a.097.097 0 01.097-.1l4.02-.027c.026 0 .051.01.07.028l3.529 3.53zM8 13a5 5 0 015-5m-9 5a9 9 0 019-9"/></svg><svg viewBox="0 0 25 24" id="More" xmlns="http://www.w3.org/2000/svg"><circle cx="12.5" cy="12" r="9"/><path d="M12.5 8v8m-4-4h8"/></svg><svg viewBox="0 0 16 16" id="Phone" xmlns="http://www.w3.org/2000/svg"><path d="M12.867 9.144a6.551 6.551 0 00-.103-5.1L10.58 4a.065.065 0 00-.066.064l-.018 2.68c0 .018.006.035.019.047l2.353 2.353zm0 0a6.636 6.636 0 01-1.48 2.243 6.636 6.636 0 01-2.243 1.48m0 0a6.551 6.551 0 01-5.1-.103L4 10.58c0-.036.028-.066.064-.066l2.68-.018c.018 0 .035.006.047.019l2.353 2.353zm-3.814-4.2a3.333 3.333 0 013.334-3.333m-6 3.333a6 6 0 016-6"/></svg><svg viewBox="0 0 16 20" id="Price" xmlns="http://www.w3.org/2000/svg"><path d="M15 6h1a1 1 0 00-.293-.707L15 6zm-5-5l.707-.707A1 1 0 0010 0v1zm0 5H9v1h1V6zm5 12h1-1zM2 20h12v-2H2v2zM0 2v16h2V2H0zm16 16V6h-2v12h2zM10 0H2v2h8V0zm5.707 5.293l-5-5-1.414 1.414 5 5 1.414-1.414zM9 1v5h2V1H9zm1 6h5V5h-5v2zm-6 4h8V9H4v2zm0 4h8v-2H4v2zm10 5a2 2 0 002-2h-2v2zM2 18H0a2 2 0 002 2v-2zM2 2V0a2 2 0 00-2 2h2z"/></svg><svg viewBox="0 0 24 24" id="Search" xmlns="http://www.w3.org/2000/svg"><path d="M15 15l5 5"/><circle cx="10.5" cy="10.5" r="6.5"/></svg><svg viewBox="0 0 24 24" id="Search-2" xmlns="http://www.w3.org/2000/svg"><path d="M15 15l5 5"/><circle cx="10.5" cy="10.5" r="6.5"/></svg><svg viewBox="0 0 24 24" id="Send" xmlns="http://www.w3.org/2000/svg"><path d="M22 3L2 11l6 1.765L22 3zm0 0l-9 19-1.765-6L22 3z"/></svg></svg>